<svg xmlns="http://www.w3.org/2000/svg" viewBox="0 0 171.79 46.23">
  <title>cb-givesmart-logo-c-rgb-bycb</title>
  <g>
    <path style="fill: #6e3fa3" d="M 0 17.83 a 5.39 5.39 0 0 0 0.08 -0.56 a 18.22 18.22 0 0 1 1 -4.95 A 16.55 16.55 0 0 1 4.9 6.05 a 15 15 0 0 1 6.61 -3.89 a 16.19 16.19 0 0 1 3.38 -0.6 a 18.09 18.09 0 0 1 2.55 0 A 15.8 15.8 0 0 1 22.86 2.8 c 0.39 0.18 0.76 0.41 1.14 0.63 a 1.21 1.21 0 0 1 0.62 1.13 a 7.19 7.19 0 0 1 -0.45 2.6 a 2.7 2.7 0 0 1 -0.36 0.64 a 0.45 0.45 0 0 1 -0.6 0.2 h 0 a 3.32 3.32 0 0 1 -0.6 -0.29 A 13.11 13.11 0 0 0 19 6.14 a 9.92 9.92 0 0 0 -1.8 -0.28 a 14.9 14.9 0 0 0 -1.89 0 a 9.58 9.58 0 0 0 -4 1.23 a 10.27 10.27 0 0 0 -3.48 3.27 a 13 13 0 0 0 -2.1 5.44 A 10.81 10.81 0 0 0 5.5 18 a 7.19 7.19 0 0 0 0.56 2.78 a 5.1 5.1 0 0 0 3 2.76 A 8 8 0 0 0 12 24 a 8.82 8.82 0 0 0 3.47 -0.7 a 0.4 0.4 0 0 0 0.27 -0.35 c 0.37 -1.85 0.75 -3.71 1.12 -5.56 a 1 1 0 0 0 0 -0.24 H 12 a 0.46 0.46 0 0 1 -0.51 -0.4 h 0 a 2.81 2.81 0 0 1 0 -0.71 a 8 8 0 0 1 0.37 -1.81 a 2.69 2.69 0 0 1 0.43 -0.8 a 0.69 0.69 0 0 1 0.55 -0.26 h 9.1 a 1 1 0 0 1 0.76 0.92 a 3.64 3.64 0 0 1 -0.05 0.74 C 22.09 17.6 21.54 20.3 21 23 c -0.16 0.78 -0.31 1.57 -0.47 2.35 a 3.62 3.62 0 0 1 -0.13 0.47 a 1.61 1.61 0 0 1 -0.86 1 a 12.62 12.62 0 0 1 -2.15 0.8 a 22.58 22.58 0 0 1 -4.06 0.79 a 20.56 20.56 0 0 1 -4 0 a 13.5 13.5 0 0 1 -3.95 -1 a 8.33 8.33 0 0 1 -5 -6 a 10.86 10.86 0 0 1 -0.27 -1.8 A 4.64 4.64 0 0 0 0 19.1 Z" />
    <path style="fill: #6e3fa3" d="M 72.89 28.94 l -0.71 -0.09 a 11.49 11.49 0 0 1 -4 -1.23 a 8.52 8.52 0 0 1 -0.8 -0.53 a 1.39 1.39 0 0 1 -0.58 -1.33 a 11.3 11.3 0 0 1 0.41 -2.31 a 5.92 5.92 0 0 1 0.25 -0.66 a 2 2 0 0 1 0.19 -0.31 a 0.48 0.48 0 0 1 0.63 -0.22 h 0 a 3 3 0 0 1 0.59 0.31 a 13.61 13.61 0 0 0 2.37 1.29 a 7.44 7.44 0 0 0 3.23 0.51 a 5.36 5.36 0 0 0 2.25 -0.58 a 3.76 3.76 0 0 0 2.1 -3 a 4.61 4.61 0 0 0 0 -0.91 a 2.66 2.66 0 0 0 -0.55 -1.37 a 5.37 5.37 0 0 0 -0.81 -0.84 a 10.12 10.12 0 0 0 -1.32 -0.93 A 26.93 26.93 0 0 1 73 14.6 A 7 7 0 0 1 70.68 11 a 7.72 7.72 0 0 1 -0.26 -2.44 a 8.58 8.58 0 0 1 0.51 -2.75 A 8.41 8.41 0 0 1 75.16 1.1 a 10.29 10.29 0 0 1 3.73 -1 l 0.76 -0.1 h 1.09 l 0.74 0.09 A 10.44 10.44 0 0 1 84.81 1 a 8.65 8.65 0 0 1 0.76 0.47 a 1.26 1.26 0 0 1 0.57 1.13 a 9 9 0 0 1 -0.46 2.67 a 3.64 3.64 0 0 1 -0.32 0.62 a 0.41 0.41 0 0 1 -0.55 0.19 h 0 a 2.17 2.17 0 0 1 -0.53 -0.26 A 10.79 10.79 0 0 0 81.84 4.7 a 5.76 5.76 0 0 0 -3.29 -0.09 A 3.4 3.4 0 0 0 76 7.52 a 4.45 4.45 0 0 0 0 0.73 a 2.44 2.44 0 0 0 0.45 1.41 a 4.13 4.13 0 0 0 1 1 c 0.46 0.34 0.92 0.67 1.41 1 a 31.77 31.77 0 0 1 3.06 2.09 a 7 7 0 0 1 2.38 3.41 a 7.93 7.93 0 0 1 0.31 2.42 A 9.36 9.36 0 0 1 84 22.4 a 9.08 9.08 0 0 1 -4.51 5.22 a 11.19 11.19 0 0 1 -3.83 1.2 l -0.82 0.08 h -0.2 Z" />
    <path style="fill: #6e3fa3" d="M 92.61 12.2 l 0.14 -0.19 a 9 9 0 0 1 5 -3.57 a 6.35 6.35 0 0 1 3.18 -0.08 a 3.75 3.75 0 0 1 3 3 c 0.06 0.23 0.09 0.47 0.14 0.71 v 0.21 l 0.16 -0.22 a 9.36 9.36 0 0 1 4.85 -3.56 a 6.27 6.27 0 0 1 2.51 -0.27 a 6.87 6.87 0 0 1 1.27 0.21 a 4 4 0 0 1 2.9 3 a 9 9 0 0 1 0.2 2.73 a 26.57 26.57 0 0 1 -0.55 3.31 c -0.4 2 -0.81 4 -1.21 6.06 c -0.25 1.24 -0.5 2.48 -0.74 3.72 a 0.79 0.79 0 0 1 -0.49 0.6 a 2.87 2.87 0 0 1 -0.92 0.21 a 14 14 0 0 1 -2.59 0 a 3.78 3.78 0 0 1 -0.74 -0.17 a 0.44 0.44 0 0 1 -0.34 -0.52 a 0.24 0.24 0 0 1 0 -0.08 l 1.41 -7 c 0.25 -1.27 0.51 -2.54 0.75 -3.81 a 9.19 9.19 0 0 0 0.2 -1.89 a 3.74 3.74 0 0 0 -0.17 -1 a 1.32 1.32 0 0 0 -1.37 -1 a 3 3 0 0 0 -1.51 0.38 A 6.41 6.41 0 0 0 106 14.34 a 9.84 9.84 0 0 0 -2.49 4.92 l -1.08 5.38 c -0.18 0.88 -0.36 1.75 -0.53 2.63 a 0.77 0.77 0 0 1 -0.49 0.61 a 2.68 2.68 0 0 1 -0.88 0.2 a 13.14 13.14 0 0 1 -2.66 0 a 2.44 2.44 0 0 1 -0.66 -0.15 a 0.49 0.49 0 0 1 -0.39 -0.56 l 0 -0.09 c 0.14 -0.74 0.29 -1.47 0.44 -2.2 l 1.11 -5.63 c 0.22 -1.08 0.44 -2.16 0.65 -3.25 a 6.72 6.72 0 0 0 0.12 -2 a 3.3 3.3 0 0 0 -0.15 -0.62 a 1.33 1.33 0 0 0 -1.34 -1 a 2.94 2.94 0 0 0 -1.4 0.32 a 6 6 0 0 0 -1.78 1.34 a 9.94 9.94 0 0 0 -2.57 5 L 90.77 25 c -0.14 0.74 -0.3 1.48 -0.44 2.22 a 0.79 0.79 0 0 1 -0.57 0.67 a 4.91 4.91 0 0 1 -0.76 0.17 a 12.57 12.57 0 0 1 -2.94 0 a 2.49 2.49 0 0 1 -0.53 -0.16 a 0.42 0.42 0 0 1 -0.27 -0.53 h 0 c 0.16 -0.82 0.33 -1.65 0.49 -2.48 c 0.38 -1.87 0.75 -3.74 1.13 -5.61 c 0.52 -2.57 1 -5.14 1.55 -7.71 c 0.14 -0.73 0.29 -1.45 0.43 -2.18 a 0.74 0.74 0 0 1 0.54 -0.62 a 5.39 5.39 0 0 1 0.8 -0.16 a 8.75 8.75 0 0 1 2.17 0 a 2.85 2.85 0 0 1 0.48 0.13 a 0.43 0.43 0 0 1 0.28 0.54 h 0 c -0.17 0.93 -0.36 1.85 -0.54 2.78 a 0.17 0.17 0 0 0 0 0.1 h 0" />
    <path style="fill: #6e3fa3" d="M 122.17 20.73 a 13 13 0 0 0 0.11 1.4 a 2.78 2.78 0 0 0 0.37 1.08 a 1.72 1.72 0 0 0 1.24 0.85 a 2.92 2.92 0 0 0 1.52 -0.16 a 5.55 5.55 0 0 0 2 -1.34 A 9.63 9.63 0 0 0 130 18.05 c 0.29 -1.09 0.48 -2.2 0.72 -3.3 a 0.25 0.25 0 0 0 0 -0.24 a 5.47 5.47 0 0 0 -1.27 -1.4 a 3.58 3.58 0 0 0 -3 -0.61 a 3.5 3.5 0 0 0 -1.6 0.95 a 6.73 6.73 0 0 0 -1.28 1.85 a 14 14 0 0 0 -1.32 5.43 m 7.2 3.74 c 0 0.05 -0.07 0.07 -0.08 0.1 a 7.27 7.27 0 0 1 -2.17 2.28 a 8.56 8.56 0 0 1 -3.2 1.39 a 6.65 6.65 0 0 1 -3.4 -0.15 a 4.49 4.49 0 0 1 -2.32 -1.72 a 6.24 6.24 0 0 1 -1 -2.48 a 12.8 12.8 0 0 1 -0.17 -3.55 a 18.18 18.18 0 0 1 1.69 -6.43 a 12 12 0 0 1 2.12 -3.17 a 8.29 8.29 0 0 1 3.6 -2.3 a 7.77 7.77 0 0 1 4.17 -0.13 a 6 6 0 0 1 3.06 2 l 0.42 0.51 a 0.77 0.77 0 0 0 0.07 -0.16 c 0.08 -0.44 0.18 -0.87 0.26 -1.3 a 0.79 0.79 0 0 1 0.54 -0.67 a 3.11 3.11 0 0 1 1 -0.19 a 12.56 12.56 0 0 1 1.94 0 a 3.1 3.1 0 0 1 0.51 0.11 a 0.51 0.51 0 0 1 0.43 0.56 l 0 0.11 c -0.09 0.44 -0.18 0.89 -0.26 1.33 l -1.17 5.81 l -1.15 5.77 c -0.34 1.66 -0.67 3.31 -1 5 a 0.81 0.81 0 0 1 -0.53 0.65 a 3.11 3.11 0 0 1 -1 0.19 a 9.63 9.63 0 0 1 -1.86 0 a 3.43 3.43 0 0 1 -0.64 -0.11 a 0.5 0.5 0 0 1 -0.45 -0.54 a 0.32 0.32 0 0 1 0 -0.14 c 0.08 -0.37 0.15 -0.74 0.23 -1.11 s 0.19 -1 0.29 -1.51 a 0.24 0.24 0 0 0 0 -0.12" />
    <path style="fill: #6e3fa3" d="M 153.87 12.66 h -2.2 a 0.42 0.42 0 0 1 -0.43 -0.38 a 2.16 2.16 0 0 1 0 -0.36 a 7.13 7.13 0 0 1 0.41 -2.38 A 3.32 3.32 0 0 1 151.9 9 a 0.8 0.8 0 0 1 0.79 -0.43 h 2 l 0.15 -0.71 c 0.21 -1.08 0.43 -2.15 0.64 -3.23 A 0.78 0.78 0 0 1 156 4 a 4.61 4.61 0 0 1 0.75 -0.21 a 10.08 10.08 0 0 1 1.9 -0.08 a 9.4 9.4 0 0 1 1.19 0.11 a 2 2 0 0 1 0.48 0.17 a 0.49 0.49 0 0 1 0.26 0.56 c -0.19 1 -0.38 1.93 -0.58 2.9 c -0.07 0.36 -0.14 0.72 -0.22 1.1 h 4.07 a 0.36 0.36 0 0 1 0.32 0.27 a 1.17 1.17 0 0 1 0.08 0.37 a 6 6 0 0 1 -0.64 2.83 a 1.59 1.59 0 0 1 -0.13 0.22 a 0.86 0.86 0 0 1 -0.78 0.4 H 159 a 1.23 1.23 0 0 1 -0.08 0.29 q -0.81 4.09 -1.64 8.19 a 6.57 6.57 0 0 0 -0.15 1.53 a 1.71 1.71 0 0 0 0 0.32 A 1.19 1.19 0 0 0 158.29 24 a 4.18 4.18 0 0 0 1.89 -0.22 c 0.16 -0.06 0.31 -0.13 0.47 -0.18 q 0.53 -0.15 0.6 0.39 a 4.63 4.63 0 0 1 -0.06 1.05 a 7.3 7.3 0 0 1 -0.46 1.66 v 0.08 a 1.6 1.6 0 0 1 -1 1 a 8.09 8.09 0 0 1 -1.61 0.41 a 10.27 10.27 0 0 1 -2 0.08 a 6.71 6.71 0 0 1 -1.61 -0.28 a 3.43 3.43 0 0 1 -2.5 -2.78 a 7.27 7.27 0 0 1 0 -2.63 c 0.27 -1.68 0.65 -3.35 1 -5 s 0.63 -3.13 0.94 -4.7 v -0.22" />
    <path style="fill: #6e3fa3" d="M 142.94 12 l 0.13 -0.21 A 8.69 8.69 0 0 1 145.71 9 a 4.86 4.86 0 0 1 2 -0.84 a 4.5 4.5 0 0 1 2.21 0.22 c 0.46 0.17 0.53 0.28 0.49 0.77 a 13 13 0 0 1 -0.65 3.2 a 3.78 3.78 0 0 1 -0.31 0.64 a 0.49 0.49 0 0 1 -0.65 0.25 h 0 L 148 13 a 2.31 2.31 0 0 0 -2 0.24 a 6.11 6.11 0 0 0 -1.49 1.24 a 9.89 9.89 0 0 0 -2.33 4.71 c -0.38 1.87 -0.75 3.75 -1.13 5.63 c -0.16 0.8 -0.32 1.6 -0.47 2.4 a 0.74 0.74 0 0 1 -0.47 0.58 a 4 4 0 0 1 -0.76 0.19 a 10.15 10.15 0 0 1 -1.91 0.08 a 9.73 9.73 0 0 1 -1.2 -0.11 a 1.33 1.33 0 0 1 -0.4 -0.12 a 0.44 0.44 0 0 1 -0.34 -0.52 s 0 0 0 -0.06 a 3.89 3.89 0 0 1 0.13 -0.68 l 1.47 -7.37 c 0.45 -2.23 0.89 -4.45 1.34 -6.68 c 0.21 -1.06 0.43 -2.13 0.63 -3.19 a 0.79 0.79 0 0 1 0.6 -0.66 a 4.91 4.91 0 0 1 0.93 -0.17 a 10.05 10.05 0 0 1 1.9 0 a 2.36 2.36 0 0 1 0.51 0.12 a 0.45 0.45 0 0 1 0.37 0.53 a 0.29 0.29 0 0 1 0 0.09 c -0.14 0.73 -0.28 1.46 -0.43 2.19 a 2.28 2.28 0 0 1 -0.1 0.52 h 0.05" />
    <path style="fill: #6e3fa3" d="M 55.71 16.4 h 2.42 a 10.35 10.35 0 0 0 2.59 -0.34 a 4.62 4.62 0 0 0 1.46 -0.63 a 2.21 2.21 0 0 0 0.8 -0.94 a 1.79 1.79 0 0 0 -0.88 -2.37 l -0.12 0 L 61.7 12 a 4.24 4.24 0 0 0 -2.29 0 A 4.63 4.63 0 0 0 57 13.66 a 8.09 8.09 0 0 0 -1.26 2.59 v 0.15 M 55 19.64 c 0 0.3 -0.09 0.58 -0.11 0.86 a 6.61 6.61 0 0 0 0 1.54 a 3.2 3.2 0 0 0 0.56 1.55 a 2.66 2.66 0 0 0 1.75 1 a 8.44 8.44 0 0 0 1.74 0.11 a 16.77 16.77 0 0 0 5 -1 a 2.7 2.7 0 0 1 0.69 -0.18 c 0.34 -0.06 0.51 0.09 0.52 0.43 a 6.17 6.17 0 0 1 -0.59 2.77 a 1.41 1.41 0 0 1 -0.77 0.71 a 11.63 11.63 0 0 1 -1.29 0.46 a 16.79 16.79 0 0 1 -2.9 0.52 a 18.56 18.56 0 0 1 -2.36 0.12 a 12.27 12.27 0 0 1 -3.46 -0.5 a 6.13 6.13 0 0 1 -1.47 -0.68 a 5.08 5.08 0 0 1 -2.23 -3 a 7.94 7.94 0 0 1 -0.31 -2 a 16.61 16.61 0 0 1 1.58 -7.76 a 11.68 11.68 0 0 1 2.34 -3.39 a 10 10 0 0 1 5.14 -2.75 a 11.49 11.49 0 0 1 2.62 -0.2 a 10.51 10.51 0 0 1 2.43 0.31 a 6.65 6.65 0 0 1 2.28 1 A 4.37 4.37 0 0 1 68 12.51 a 5 5 0 0 1 -1.7 4.76 A 7.53 7.53 0 0 1 64 18.59 a 15 15 0 0 1 -3.5 0.84 a 29 29 0 0 1 -4.06 0.21 Z" />
    <path style="fill: #6e3fa3" d="M 40.06 23.07 l 0.09 -0.13 A 42.06 42.06 0 0 0 44 15.45 c 0.79 -1.95 1.45 -3.95 2.06 -6 a 1 1 0 0 1 0.72 -0.72 a 3.89 3.89 0 0 1 1.07 -0.15 h 2.07 a 6.47 6.47 0 0 1 0.87 0.11 a 0.58 0.58 0 0 1 0.22 0.08 a 0.41 0.41 0 0 1 0.28 0.42 a 2.62 2.62 0 0 1 -0.16 1 c -0.26 0.76 -0.52 1.53 -0.81 2.29 A 61.28 61.28 0 0 1 45.2 23.16 a 44.88 44.88 0 0 1 -2.82 4.13 a 1.83 1.83 0 0 1 -1.07 0.71 a 5.69 5.69 0 0 1 -0.81 0.13 a 27.41 27.41 0 0 1 -3.14 0 a 5.62 5.62 0 0 1 -1 -0.15 a 0.8 0.8 0 0 1 -0.71 -0.81 L 35.09 23 c -0.18 -1.34 -0.35 -2.69 -0.53 -4 L 34 14.56 c -0.16 -1.18 -0.33 -2.37 -0.46 -3.56 a 12.38 12.38 0 0 1 -0.06 -1.49 A 0.73 0.73 0 0 1 34 8.76 a 3.79 3.79 0 0 1 1.06 -0.17 h 2 a 3.69 3.69 0 0 1 0.81 0.12 a 0.58 0.58 0 0 1 0.49 0.56 c 0.06 0.42 0.11 0.83 0.16 1.25 c 0.09 0.82 0.19 1.64 0.28 2.46 l 0.27 2.35 c 0.09 0.78 0.19 1.57 0.28 2.36 s 0.15 1.33 0.23 2 s 0.19 1.59 0.27 2.37 c 0 0.29 0 0.58 0.07 0.87 v 0.14 h 0" />
    <path style="fill: #6e3fa3" d="M 25.74 28.18 A 11.32 11.32 0 0 1 24 28.05 a 2.26 2.26 0 0 1 -0.37 -0.11 a 0.47 0.47 0 0 1 -0.35 -0.56 a 0.09 0.09 0 0 1 0 -0.05 l 0.15 -0.72 c 0.51 -2.59 1 -5.18 1.54 -7.76 l 1.29 -6.48 l 0.57 -2.86 a 0.82 0.82 0 0 1 0.5 -0.65 a 3.4 3.4 0 0 1 0.94 -0.23 a 11.7 11.7 0 0 1 2.51 0 a 3.26 3.26 0 0 1 0.76 0.19 c 0.33 0.11 0.41 0.29 0.35 0.64 c -0.31 1.54 -0.62 3.07 -0.92 4.61 c -0.42 2.1 -0.83 4.2 -1.25 6.29 l -1.2 6 c -0.06 0.3 -0.13 0.6 -0.18 0.91 a 0.72 0.72 0 0 1 -0.48 0.59 a 4.43 4.43 0 0 1 -0.8 0.19 c -0.47 0.06 -1 0.07 -1.29 0.1" />
    <path style="fill: #6e3fa3" d="M 30 6 a 7.22 7.22 0 0 1 -1.39 -0.16 l -0.26 -0.08 a 1.25 1.25 0 0 1 -0.84 -1.13 a 4.51 4.51 0 0 1 0.15 -1.46 a 5.78 5.78 0 0 1 0.24 -0.81 A 2.3 2.3 0 0 1 29.75 0.78 a 6.9 6.9 0 0 1 2.64 0 l 0.27 0.07 a 1.26 1.26 0 0 1 1 1.25 a 5.32 5.32 0 0 1 -0.54 2.57 a 2.15 2.15 0 0 1 -1.73 1.2 c -0.43 0.07 -0.87 0.09 -1.3 0.13" />
  </g>
  <path style="fill: #6e3fa3" d="M 170.43 4 a 2.53 2.53 0 0 1 1 1 a 2.69 2.69 0 0 1 0.36 1.38 a 2.69 2.69 0 0 1 -0.36 1.38 a 2.53 2.53 0 0 1 -1 1 a 2.74 2.74 0 0 1 -2.69 0 a 2.53 2.53 0 0 1 -1 -1 a 2.76 2.76 0 0 1 0 -2.76 a 2.53 2.53 0 0 1 1 -1 a 2.74 2.74 0 0 1 2.69 0 Z m -0.22 4.29 A 2 2 0 0 0 171 7.5 a 2.58 2.58 0 0 0 0 -2.33 a 2.09 2.09 0 0 0 -0.78 -0.78 a 2.42 2.42 0 0 0 -2.25 0 a 2 2 0 0 0 -0.79 0.79 a 2.22 2.22 0 0 0 -0.29 1.16 a 2.22 2.22 0 0 0 0.29 1.16 a 2 2 0 0 0 0.79 0.79 A 2.42 2.42 0 0 0 170.21 8.29 Z m 0 -0.72 a 0.18 0.18 0 0 1 -0.11 0.17 a 0.5 0.5 0 0 1 -0.24 0.06 a 0.31 0.31 0 0 1 -0.28 -0.18 a 0.88 0.88 0 0 1 -0.12 -0.5 a 0.58 0.58 0 0 0 -0.1 -0.36 a 0.34 0.34 0 0 0 -0.3 -0.13 h -0.47 v 0.94 a 0.21 0.21 0 0 1 -0.07 0.14 a 0.25 0.25 0 0 1 -0.16 0.06 a 0.23 0.23 0 0 1 -0.16 -0.06 a 0.17 0.17 0 0 1 -0.07 -0.14 V 5.12 a 0.18 0.18 0 0 1 0.05 -0.12 a 0.16 0.16 0 0 1 0.13 -0.06 h 0.83 a 1.29 1.29 0 0 1 0.77 0.18 a 0.74 0.74 0 0 1 0.25 0.61 a 0.68 0.68 0 0 1 -0.61 0.71 a 0.9 0.9 0 0 1 0.27 0.28 a 0.8 0.8 0 0 1 0.11 0.4 a 0.62 0.62 0 0 0 0 0.27 a 0.16 0.16 0 0 0 0.12 0.09 c 0.15 0 0.19 0.06 0.19 0.13 Z m -0.68 -1.49 a 0.42 0.42 0 0 0 0.17 -0.34 a 0.35 0.35 0 0 0 -0.14 -0.33 a 0.88 0.88 0 0 0 -0.42 -0.08 h -0.55 v 0.86 h 0.49 a 0.8 0.8 0 0 0 0.48 -0.07 Z" />
  <g>
    <g>
      <g>
        <path style="fill: #5a6771" d="M 127.58 37 h 0 a 0.82 0.82 0 0 0 -1.16 0 h 0 a 0.81 0.81 0 0 0 -0.23 0.59 v 3.27 a 1.52 1.52 0 0 1 -0.34 1 a 1.27 1.27 0 0 1 -1 0.36 a 1.3 1.3 0 0 1 -1 -0.32 a 1.46 1.46 0 0 1 -0.33 -1.08 V 37.6 a 0.86 0.86 0 0 0 -0.23 -0.59 a 0.75 0.75 0 0 0 -0.58 -0.24 a 0.77 0.77 0 0 0 -0.59 0.24 a 0.86 0.86 0 0 0 -0.23 0.59 v 3.71 a 2.73 2.73 0 0 0 0.29 1.28 a 2.07 2.07 0 0 0 0.79 0.87 a 2.24 2.24 0 0 0 1.18 0.31 a 2.59 2.59 0 0 0 2 -0.7 a 1.62 1.62 0 0 1 -0.4 1.21 a 1.83 1.83 0 0 1 -1.26 0.36 a 2 2 0 0 1 -0.49 0 l -0.45 -0.14 l -0.31 -0.13 H 123 a 0.65 0.65 0 0 0 -0.44 0.16 a 0.82 0.82 0 0 0 -0.28 0.45 a 0.81 0.81 0 0 0 0 0.22 q 0 0.49 0.66 0.78 a 3 3 0 0 0 0.73 0.19 a 6.36 6.36 0 0 0 0.87 0.06 a 3.58 3.58 0 0 0 2.38 -0.75 a 3 3 0 0 0 0.89 -2.42 V 37.6 A 0.83 0.83 0 0 0 127.58 37 Z" />
        <path style="fill: #5a6771" d="M 69.81 41.8 a 0.77 0.77 0 0 0 -0.3 0.06 a 1.28 1.28 0 0 0 -0.25 0.15 l -0.2 0.12 a 1.91 1.91 0 0 1 -0.88 0.15 a 1.71 1.71 0 0 1 -1.32 -0.58 a 2 2 0 0 1 -0.52 -1.44 a 2.08 2.08 0 0 1 0.51 -1.47 a 1.85 1.85 0 0 1 1.42 -0.56 a 2.47 2.47 0 0 1 0.38 0.05 a 1.91 1.91 0 0 1 0.34 0.1 a 1.14 1.14 0 0 1 0.23 0.15 a 1.32 1.32 0 0 0 0.25 0.16 a 1 1 0 0 0 0.35 0.06 a 0.59 0.59 0 0 0 0.48 -0.23 a 0.82 0.82 0 0 0 0.18 -0.52 a 1.06 1.06 0 0 0 -0.69 -0.94 a 4 4 0 0 0 -1.74 -0.33 a 3.39 3.39 0 0 0 -1.73 0.45 a 3.25 3.25 0 0 0 -1.19 1.25 a 4.18 4.18 0 0 0 0 3.62 a 3 3 0 0 0 1.16 1.27 a 3.27 3.27 0 0 0 1.72 0.46 a 4.69 4.69 0 0 0 1.24 -0.16 a 2.79 2.79 0 0 0 1 -0.43 a 0.8 0.8 0 0 0 0.37 -0.61 a 0.82 0.82 0 0 0 -0.2 -0.56 A 0.7 0.7 0 0 0 69.81 41.8 Z" />
        <path style="fill: #5a6771" d="M 111.26 36.72 a 2.29 2.29 0 0 0 -1.22 0.34 a 3.21 3.21 0 0 0 -0.78 0.64 h 0 a 0.86 0.86 0 0 0 -0.23 -0.59 a 0.86 0.86 0 0 0 -1.17 0 a 0.86 0.86 0 0 0 -0.23 0.59 v 6 h 1.63 v -4 a 1.39 1.39 0 0 1 0.39 -1 a 1.47 1.47 0 0 1 1.09 -0.4 a 1.09 1.09 0 0 1 0.93 0.37 a 1.77 1.77 0 0 1 0.27 1 v 4 h 1.63 v -4 a 3.93 3.93 0 0 0 -0.49 -2.12 A 2 2 0 0 0 111.26 36.72 Z" />
        <path style="fill: #5a6771" d="M 88 37.51 a 1.92 1.92 0 0 0 -1.76 -0.79 a 2.28 2.28 0 0 0 -1.36 0.44 A 2.94 2.94 0 0 0 84 38 a 2 2 0 0 0 -2 -1.28 a 2.18 2.18 0 0 0 -1.19 0.33 a 3.12 3.12 0 0 0 -0.76 0.64 h 0 a 0.81 0.81 0 1 0 -1.62 0 v 6 h 1.62 v -4 a 1.42 1.42 0 0 1 0.38 -1 a 1.4 1.4 0 0 1 1 -0.4 a 1 1 0 0 1 0.89 0.37 a 1.85 1.85 0 0 1 0.26 1 v 4 H 84.2 v -4 a 1.42 1.42 0 0 1 0.38 -1 a 1.4 1.4 0 0 1 1 -0.4 a 1 1 0 0 1 0.89 0.37 a 1.85 1.85 0 0 1 0.26 1 v 4 h 1.62 v -4 A 4 4 0 0 0 88 37.51 Z" />
        <path style="fill: #5a6771" d="M 115.41 34.72 a 1.07 1.07 0 0 0 -0.63 0.15 a 0.62 0.62 0 0 0 -0.22 0.54 v 0.24 a 0.63 0.63 0 0 0 0.2 0.53 a 1 1 0 0 0 0.64 0.16 a 1.09 1.09 0 0 0 0.66 -0.15 a 0.64 0.64 0 0 0 0.21 -0.54 v -0.24 a 0.68 0.68 0 0 0 -0.2 -0.54 A 1.09 1.09 0 0 0 115.41 34.72 Z" />
        <path style="fill: #5a6771" d="M 99.08 37.51 a 1.92 1.92 0 0 0 -1.76 -0.79 a 2.25 2.25 0 0 0 -1.35 0.44 a 3.27 3.27 0 0 0 -0.82 0.84 a 2 2 0 0 0 -2 -1.28 a 2.27 2.27 0 0 0 -1.19 0.33 a 3.07 3.07 0 0 0 -0.75 0.64 h 0 A 0.86 0.86 0 0 0 91 37.1 a 0.86 0.86 0 0 0 -1.17 0 a 0.86 0.86 0 0 0 -0.23 0.59 v 6 h 1.63 v -4 a 1.41 1.41 0 0 1 0.37 -1 a 1.4 1.4 0 0 1 1 -0.4 a 1 1 0 0 1 0.88 0.37 a 1.85 1.85 0 0 1 0.26 1 v 4 h 1.63 v -4 a 1.41 1.41 0 0 1 0.37 -1 a 1.4 1.4 0 0 1 1 -0.4 a 1 1 0 0 1 0.88 0.37 a 1.85 1.85 0 0 1 0.26 1 v 4 h 1.63 v -4 A 3.89 3.89 0 0 0 99.08 37.51 Z" />
        <path style="fill: #5a6771" d="M 76 37.17 a 3.42 3.42 0 0 0 -1.74 -0.45 a 3.5 3.5 0 0 0 -1.76 0.45 a 3.33 3.33 0 0 0 -1.24 1.26 a 3.87 3.87 0 0 0 0 3.65 a 3.31 3.31 0 0 0 1.24 1.25 a 3.62 3.62 0 0 0 1.76 0.44 A 3.52 3.52 0 0 0 76 43.33 a 3.43 3.43 0 0 0 1.26 -1.25 a 3.93 3.93 0 0 0 0 -3.65 A 3.46 3.46 0 0 0 76 37.17 Z m -0.16 4.14 a 2 2 0 0 1 -0.66 0.71 a 1.77 1.77 0 0 1 -0.92 0.25 a 1.68 1.68 0 0 1 -0.92 -0.25 a 1.9 1.9 0 0 1 -0.67 -0.71 a 2.46 2.46 0 0 1 0 -2.12 h 0 a 1.9 1.9 0 0 1 0.67 -0.71 a 1.75 1.75 0 0 1 0.92 -0.26 a 1.78 1.78 0 0 1 0.92 0.26 a 1.87 1.87 0 0 1 0.66 0.71 a 2.3 2.3 0 0 1 0.25 1.06 a 2.2 2.2 0 0 1 -0.27 1.06 Z" />
        <path style="fill: #5a6771" d="M 115.42 37 a 0.77 0.77 0 0 0 -0.59 0.24 a 0.86 0.86 0 0 0 -0.23 0.59 V 43.7 h 1.63 V 37.78 a 0.86 0.86 0 0 0 -0.23 -0.59 A 0.77 0.77 0 0 0 115.42 37 Z" />
        <path style="fill: #5a6771" d="M 120.35 38.47 a 0.76 0.76 0 0 0 0.55 -0.21 a 0.73 0.73 0 0 0 0.22 -0.52 a 0.8 0.8 0 0 0 -0.22 -0.55 a 0.7 0.7 0 0 0 -0.55 -0.22 h -0.82 V 35.55 a 0.81 0.81 0 0 0 -0.23 -0.59 a 0.73 0.73 0 0 0 -0.57 -0.24 a 0.82 0.82 0 0 0 -0.59 0.24 a 0.86 0.86 0 0 0 -0.23 0.59 V 37 h -0.51 a 0.76 0.76 0 0 0 -0.55 0.21 a 0.75 0.75 0 0 0 -0.22 0.53 a 0.8 0.8 0 0 0 0.22 0.55 a 0.76 0.76 0 0 0 0.55 0.21 h 0.51 v 3.38 c 0 0.74 0.18 1.23 0.56 1.46 a 2.38 2.38 0 0 0 1.33 0.34 a 1.65 1.65 0 0 0 0.87 -0.24 a 0.73 0.73 0 0 0 0.32 -1 a 0.57 0.57 0 0 0 -0.08 -0.13 a 0.45 0.45 0 0 0 -0.37 -0.19 a 0.8 0.8 0 0 0 -0.3 0.06 H 120 a 0.48 0.48 0 0 1 -0.33 -0.1 a 0.41 0.41 0 0 1 -0.12 -0.33 v -3.3 Z" />
        <path style="fill: #5a6771" d="M 106.34 37.08 h 0 a 0.86 0.86 0 0 0 -1.17 0 a 0.86 0.86 0 0 0 -0.23 0.59 V 41 a 1.39 1.39 0 0 1 -0.39 1 a 1.47 1.47 0 0 1 -1.09 0.4 a 1.07 1.07 0 0 1 -0.93 -0.37 a 1.77 1.77 0 0 1 -0.27 -1 V 37.67 a 0.83 0.83 0 0 0 -0.84 -0.82 a 0.88 0.88 0 0 0 -0.56 0.23 a 0.81 0.81 0 0 0 -0.23 0.59 v 3.66 h 0 v 0.22 h 0 a 2.68 2.68 0 0 0 0.48 1.42 a 2 2 0 0 0 1.81 0.78 a 3.39 3.39 0 0 0 2 -0.84 v 0.72 h 1.63 v -6 A 0.86 0.86 0 0 0 106.34 37.08 Z" />
      </g>
      <g>
        <path style="fill: #5a6771" d="M 133.83 37.72 a 2.74 2.74 0 0 0 -1.45 -0.41 a 2.44 2.44 0 0 0 -1.29 0.36 a 2.7 2.7 0 0 0 -0.73 0.66 V 35.25 h 0 a 0.49 0.49 0 0 0 -0.13 -0.31 a 0.42 0.42 0 0 0 -0.32 -0.13 a 0.46 0.46 0 0 0 -0.33 0.13 a 0.39 0.39 0 0 0 -0.12 0.31 h 0 v 8.34 h 0.9 v -0.88 a 2.79 2.79 0 0 0 0.76 0.65 a 2.45 2.45 0 0 0 1.27 0.35 a 2.65 2.65 0 0 0 1.45 -0.43 a 2.88 2.88 0 0 0 1 -1.16 a 3.69 3.69 0 0 0 0.36 -1.63 a 3.56 3.56 0 0 0 -0.36 -1.63 A 2.71 2.71 0 0 0 133.83 37.72 Z m 0.24 4 a 1.92 1.92 0 0 1 -0.72 0.85 a 1.77 1.77 0 0 1 -1 0.31 a 1.86 1.86 0 0 1 -1 -0.3 a 2.09 2.09 0 0 1 -0.72 -0.84 a 2.85 2.85 0 0 1 -0.26 -1.22 a 2.67 2.67 0 0 1 0.26 -1.21 a 2 2 0 0 1 0.71 -0.82 a 2 2 0 0 1 1 -0.3 a 1.86 1.86 0 0 1 1 0.3 a 2 2 0 0 1 0.72 0.83 a 2.49 2.49 0 0 1 0.27 1.2 a 2.81 2.81 0 0 1 -0.26 1.17 Z" />
        <path style="fill: #5a6771" d="M 139.45 37.41 h 0 a 1 1 0 0 0 -0.47 -0.1 a 2.11 2.11 0 0 0 -1.34 0.47 a 3 3 0 0 0 -0.64 0.74 v -0.59 a 0.47 0.47 0 0 0 -0.12 -0.32 a 0.51 0.51 0 0 0 -0.33 -0.13 a 0.44 0.44 0 0 0 -0.45 0.43 v 5.68 h 0.9 V 40.27 a 2.2 2.2 0 0 1 0.27 -1 a 2.39 2.39 0 0 1 0.66 -0.82 a 1.31 1.31 0 0 1 0.8 -0.31 H 139 a 0.58 0.58 0 0 0 0.26 0.06 a 0.39 0.39 0 0 0 0.3 -0.13 a 0.45 0.45 0 0 0 0.12 -0.33 A 0.4 0.4 0 0 0 139.45 37.41 Z" />
        <path style="fill: #5a6771" d="M 145 37.45 a 0.39 0.39 0 0 0 -0.32 0.13 a 0.46 0.46 0 0 0 -0.13 0.33 v 0.37 a 2.52 2.52 0 0 0 -0.72 -0.62 a 2.7 2.7 0 0 0 -2.76 0.06 a 2.82 2.82 0 0 0 -1 1.14 a 3.57 3.57 0 0 0 -0.37 1.63 a 3.71 3.71 0 0 0 0.37 1.64 a 2.85 2.85 0 0 0 1 1.15 a 2.68 2.68 0 0 0 1.46 0.43 a 2.47 2.47 0 0 0 1.32 -0.38 a 2.85 2.85 0 0 0 0.71 -0.63 v 0.89 h 0.9 V 37.91 a 0.5 0.5 0 0 0 -0.12 -0.33 A 0.43 0.43 0 0 0 145 37.45 Z m -0.67 4.26 a 2.09 2.09 0 0 1 -0.72 0.84 h 0 a 1.78 1.78 0 0 1 -1 0.3 a 1.89 1.89 0 0 1 -1 -0.3 a 2.07 2.07 0 0 1 -0.71 -0.84 a 2.85 2.85 0 0 1 -0.26 -1.22 a 2.49 2.49 0 0 1 0.27 -1.2 a 2 2 0 0 1 0.71 -0.83 a 1.86 1.86 0 0 1 1 -0.3 a 1.79 1.79 0 0 1 1 0.31 a 2 2 0 0 1 0.72 0.83 a 2.82 2.82 0 0 1 0 2.41 Z" />
        <path style="fill: #5a6771" d="M 149.64 37.31 a 2.53 2.53 0 0 0 -1.26 0.34 a 2.42 2.42 0 0 0 -0.74 0.61 v -0.33 a 0.48 0.48 0 0 0 -0.13 -0.32 a 0.51 0.51 0 0 0 -0.33 -0.13 a 0.44 0.44 0 0 0 -0.45 0.45 v 5.66 h 0.91 V 39.76 a 1.34 1.34 0 0 1 0.26 -0.79 a 2 2 0 0 1 0.69 -0.59 a 2 2 0 0 1 0.9 -0.22 a 1.3 1.3 0 0 1 1.08 0.44 a 1.78 1.78 0 0 1 0.36 1.16 v 3.83 h 0.9 V 39.72 A 2.72 2.72 0 0 0 151.3 38 A 2 2 0 0 0 149.64 37.31 Z" />
        <path style="fill: #5a6771" d="M 158.33 34.92 a 0.42 0.42 0 0 0 -0.32 -0.13 a 0.44 0.44 0 0 0 -0.45 0.43 V 38.3 a 2.8 2.8 0 0 0 -0.73 -0.64 a 2.66 2.66 0 0 0 -1.32 -0.35 a 2.57 2.57 0 0 0 -1.43 0.42 a 2.9 2.9 0 0 0 -1 1.14 a 3.82 3.82 0 0 0 0 3.27 a 2.93 2.93 0 0 0 1 1.15 a 2.55 2.55 0 0 0 1.44 0.42 a 2.43 2.43 0 0 0 1.33 -0.39 a 3.14 3.14 0 0 0 0.71 -0.65 v 0.92 h 0.9 V 35.24 A 0.39 0.39 0 0 0 158.33 34.92 Z m -1 6.8 a 2 2 0 0 1 -0.72 0.83 a 1.92 1.92 0 0 1 -2.06 0 a 2.09 2.09 0 0 1 -0.72 -0.84 a 2.9 2.9 0 0 1 0 -2.41 a 2.06 2.06 0 0 1 0.72 -0.83 a 1.88 1.88 0 0 1 2.06 0 a 2 2 0 0 1 0.72 0.83 a 2.79 2.79 0 0 1 0.26 1.2 a 2.84 2.84 0 0 1 -0.25 1.22 Z" />
        <path style="fill: #5a6771" d="M 163 40.44 a 5.89 5.89 0 0 0 -1 -0.34 a 4.31 4.31 0 0 1 -1.15 -0.43 a 0.76 0.76 0 0 1 -0.26 -1 a 0.81 0.81 0 0 1 0.26 -0.26 a 1.52 1.52 0 0 1 0.88 -0.24 a 2.08 2.08 0 0 1 0.78 0.15 a 1.68 1.68 0 0 1 0.63 0.46 a 0.36 0.36 0 0 0 0.28 0.12 a 0.42 0.42 0 0 0 0.28 -0.1 a 0.41 0.41 0 0 0 0.15 -0.32 a 0.43 0.43 0 0 0 -0.13 -0.3 a 2.23 2.23 0 0 0 -0.91 -0.63 a 2.66 2.66 0 0 0 -1 -0.2 a 2.52 2.52 0 0 0 -1.08 0.22 a 1.8 1.8 0 0 0 -0.77 0.62 a 1.49 1.49 0 0 0 -0.28 0.91 a 1.42 1.42 0 0 0 0.59 1.23 a 5 5 0 0 0 1.54 0.65 a 3.61 3.61 0 0 1 1 0.4 a 0.79 0.79 0 0 1 0.23 1.09 a 0.84 0.84 0 0 1 -0.23 0.23 a 1.62 1.62 0 0 1 -0.91 0.25 a 2 2 0 0 1 -1.75 -0.87 h 0 a 0.43 0.43 0 0 0 -0.32 -0.14 a 0.44 0.44 0 0 0 -0.25 0.08 a 0.36 0.36 0 0 0 -0.19 0.32 a 0.62 0.62 0 0 0 0.11 0.32 a 2.85 2.85 0 0 0 2.34 1.1 a 2.56 2.56 0 0 0 1.56 -0.47 a 1.7 1.7 0 0 0 0.3 -2.25 A 1.66 1.66 0 0 0 163 40.44 Z" />
        <path style="fill: #5a6771" d="M 165.19 38.19 v -0.07 a 0.14 0.14 0 0 0 0 -0.09 a 0.23 0.23 0 0 0 -0.07 -0.07 a 0.17 0.17 0 0 0 0.15 -0.18 c 0 -0.13 -0.08 -0.2 -0.25 -0.2 h -0.26 v 0.62 a 0.06 0.06 0 0 0 0.06 0.06 h 0 V 38 h 0.26 a 0.14 0.14 0 0 1 0 0.09 a 0.24 0.24 0 0 0 0 0.12 s 0 0 0.07 0 h 0.06 Z m -0.12 -0.31 h -0.24 v -0.2 h 0.27 a 0.09 0.09 0 0 1 0 0.07 A 0.14 0.14 0 0 1 165.07 37.88 Z" />
        <path style="fill: #5a6771" d="M 165.5 37.63 a 0.69 0.69 0 0 0 -0.24 -0.24 a 0.7 0.7 0 0 0 -0.66 0 a 0.69 0.69 0 0 0 -0.24 0.24 a 0.67 0.67 0 0 0 -0.09 0.34 a 0.63 0.63 0 0 0 0.09 0.33 a 0.69 0.69 0 0 0 0.24 0.24 a 0.65 0.65 0 0 0 0.66 0 a 0.69 0.69 0 0 0 0.24 -0.24 a 0.63 0.63 0 0 0 0.09 -0.33 A 0.67 0.67 0 0 0 165.5 37.63 Z m -0.12 0.61 a 0.41 0.41 0 0 1 -0.18 0.19 a 0.53 0.53 0 0 1 -0.73 -0.19 a 0.5 0.5 0 0 1 -0.07 -0.27 a 0.53 0.53 0 0 1 0.07 -0.28 a 0.53 0.53 0 0 1 0.73 -0.19 a 0.47 0.47 0 0 1 0.18 0.19 a 0.53 0.53 0 0 1 0.07 0.28 A 0.52 0.52 0 0 1 165.38 38.24 Z" />
      </g>
    </g>
    <g>
      <path style="fill: #5a6771" d="M 55.93 39 a 2.13 2.13 0 0 1 0.77 0.86 a 2.91 2.91 0 0 1 0 2.45 a 2.2 2.2 0 0 1 -0.76 0.87 a 2 2 0 0 1 -1.08 0.32 a 1.85 1.85 0 0 1 -1 -0.26 a 2 2 0 0 1 -0.71 -0.68 v 0.6 a 0.26 0.26 0 0 1 -0.07 0.19 a 0.25 0.25 0 0 1 -0.2 0.09 a 0.25 0.25 0 0 1 -0.19 -0.09 a 0.27 0.27 0 0 1 -0.08 -0.19 V 37 a 0.27 0.27 0 0 1 0.27 -0.27 h 0 a 0.3 0.3 0 0 1 0.2 0.08 a 0.26 0.26 0 0 1 0.07 0.19 v 2.66 a 2 2 0 0 1 0.69 -0.71 a 1.77 1.77 0 0 1 1 -0.27 A 2 2 0 0 1 55.93 39 Z m -0.28 3.74 a 1.79 1.79 0 0 0 0.59 -0.69 a 2.49 2.49 0 0 0 0 -2 a 1.73 1.73 0 0 0 -0.59 -0.67 a 1.48 1.48 0 0 0 -0.84 -0.25 a 1.64 1.64 0 0 0 -0.86 0.24 a 1.45 1.45 0 0 0 -0.58 0.67 a 2.33 2.33 0 0 0 0 2 a 1.72 1.72 0 0 0 0.59 0.69 a 1.55 1.55 0 0 0 1.69 0 Z" />
      <path style="fill: #5a6771" d="M 61.71 38.77 a 0.27 0.27 0 0 1 0.08 0.19 v 4 a 2.42 2.42 0 0 1 -0.28 1.21 a 1.93 1.93 0 0 1 -0.78 0.77 a 2.48 2.48 0 0 1 -1.11 0.26 a 3.36 3.36 0 0 1 -0.71 -0.08 a 1.86 1.86 0 0 1 -0.55 -0.22 a 0.33 0.33 0 0 1 -0.18 -0.26 v -0.09 a 0.3 0.3 0 0 1 0.09 -0.13 a 0.33 0.33 0 0 1 0.14 0 h 0.11 a 2.22 2.22 0 0 0 1.1 0.31 a 1.54 1.54 0 0 0 1.18 -0.46 A 1.79 1.79 0 0 0 61.25 43 v -0.32 a 1.66 1.66 0 0 1 -0.65 0.61 a 2 2 0 0 1 -0.92 0.23 A 1.5 1.5 0 0 1 58.49 43 a 1.83 1.83 0 0 1 -0.4 -1.27 V 39 a 0.26 0.26 0 0 1 0.07 -0.19 a 0.3 0.3 0 0 1 0.2 -0.08 a 0.27 0.27 0 0 1 0.27 0.27 h 0 v 2.69 a 1.48 1.48 0 0 0 0.28 1 a 1.1 1.1 0 0 0 0.89 0.33 a 1.43 1.43 0 0 0 0.7 -0.18 a 1.34 1.34 0 0 0 0.54 -0.49 a 1.07 1.07 0 0 0 0.21 -0.64 V 39 a 0.26 0.26 0 0 1 0.07 -0.19 a 0.3 0.3 0 0 1 0.2 -0.08 A 0.26 0.26 0 0 1 61.71 38.77 Z" />
    </g>
  </g>
</svg>