<?xml version="1.0" encoding="UTF-8"?>
<svg width="30px" height="30px" viewBox="0 0 30 30" version="1.1" xmlns="http://www.w3.org/2000/svg" xmlns:xlink="http://www.w3.org/1999/xlink">
    <title>L-Bar / Icon / Dark / Auction</title>
    <g id="L-Bar-/-Icon-/-Dark-/-Auction" stroke="none" stroke-width="1" fill="none" fill-rule="evenodd">
        <g id="iconfinder_auction_3827990" transform="translate(5.000000, 6.000000)" fill="#353643" fill-rule="nonzero">
            <path d="M17.5020548,14.1697828 L14.1697828,10.8251691 C13.469222,10.1909372 12.401994,10.1909372 11.7014332,10.8251691 L10.0352972,9.15903314 L11.0102953,8.18403506 L11.1954216,8.35681953 C11.3074023,8.47613612 11.4637485,8.54382002 11.6273827,8.54382002 C11.7910169,8.54382002 11.9473631,8.47613612 12.0593439,8.35681953 L13.6637711,6.76473404 C14.378923,6.03918764 14.378923,4.87382987 13.6637711,4.14828347 L10.4672584,0.951770751 C9.74171203,0.236618949 8.57635426,0.236618949 7.85080786,0.951770751 L6.25872237,2.55619799 C6.13940578,2.66817878 6.07172188,2.82452498 6.07172188,2.98815916 C6.07172188,3.15179335 6.13940578,3.30813955 6.25872237,3.42012034 L6.43150684,3.60524656 L3.60524656,6.43150684 L3.42012034,6.25872237 C3.30813955,6.13940578 3.15179335,6.07172188 2.98815916,6.07172188 C2.82452498,6.07172188 2.66817878,6.13940578 2.55619799,6.25872237 L0.951770751,7.85080786 C0.236618949,8.57635426 0.236618949,9.74171203 0.951770751,10.4672584 L4.14828347,13.6637711 C4.87651387,14.3723463 6.03650364,14.3723463 6.76473404,13.6637711 L8.35681953,12.0593439 C8.47613612,11.9473631 8.54382002,11.7910169 8.54382002,11.6273827 C8.54382002,11.4637485 8.47613612,11.3074023 8.35681953,11.1954216 L8.18403506,11.0102953 L9.15903314,10.0352972 L10.7758021,11.6397245 C10.103461,12.3490756 10.103461,13.4604317 10.7758021,14.1697828 L14.1204158,17.5020548 C14.6949735,18.0895737 15.4831504,18.419094 16.3049052,18.4153441 L16.5147149,18.4153441 C17.0141968,18.4286684 17.4978555,18.2395234 17.8557861,17.8908897 C18.2137166,17.5422561 18.4153758,17.0637415 18.4153758,16.5640819 L18.4153758,16.3542722 C18.419094,15.5325174 18.0895737,14.7443405 17.5020548,14.1697828 Z M8.72707197,1.82803486 C8.9670224,1.59283639 9.35104389,1.59283639 9.59099432,1.82803486 L12.787507,5.02454758 C13.0227055,5.26449801 13.0227055,5.6485195 12.787507,5.88846993 L11.6273827,7.04859424 L7.56694766,2.98815916 L8.72707197,1.82803486 Z M5.88846993,12.787507 C5.6485195,13.0227055 5.26449801,13.0227055 5.02454758,12.787507 L1.82803486,9.59099432 C1.59283639,9.35104389 1.59283639,8.9670224 1.82803486,8.72707197 L2.98815916,7.56694766 L7.04859424,11.6273827 L5.88846993,12.787507 Z" id="Shape"></path>
        </g>
    </g>
</svg>