<?xml version="1.0" encoding="UTF-8"?>
<svg width="30px" height="30px" viewBox="0 0 30 30" version="1.1" xmlns="http://www.w3.org/2000/svg" xmlns:xlink="http://www.w3.org/1999/xlink">
    <title>L-Bar / Icon / Dark / Director's Chair</title>
    <defs>
        <filter color-interpolation-filters="auto" id="filter-1">
            <feColorMatrix in="SourceGraphic" type="matrix" values="0 0 0 0 0.207843 0 0 0 0 0.211765 0 0 0 0 0.262745 0 0 0 1.000000 0"></feColorMatrix>
        </filter>
    </defs>
    <g id="L-Bar-/-Icon-/-Dark-/-Director's-Chair" stroke="none" stroke-width="1" fill="none" fill-rule="evenodd">
        <g filter="url(#filter-1)" id="noun_director's-chair_615246">
            <g transform="translate(6.000000, 5.000000)">
                <path d="M17.3577273,11.4451364 L17.1818182,10.6461818 C17.1785455,10.647 16.9159091,10.7042727 16.4515909,10.7865 L16.4515909,0 L15.6334091,0 L15.6334091,0.818181818 L1.72431818,0.818181818 L1.72431818,0 L0.906136364,0 L0.906136364,10.7860909 C0.441818182,10.7038636 0.179181818,10.6465909 0.175909091,10.6457727 L0,11.4447273 C0.018,11.4488182 0.446318182,11.5420909 1.19454545,11.6648182 L7.695,14.6352273 L1.14545455,17.6277273 L1.485,18.3714545 L8.67886364,15.0848182 L15.8727273,18.3718636 L16.2122727,17.6281364 L9.66272727,14.6356364 L16.1627727,11.6652273 C16.911,11.5429091 17.3397273,11.4488182 17.3577273,11.4451364 Z M8.26977273,4.5 L8.67886364,3.27272727 L9.08795455,4.5 L10.3152273,4.5 L9.49704545,5.31818182 L9.90613636,6.54545455 L8.67886364,5.72727273 L7.45159091,6.54545455 L7.86068182,5.31818182 L7.0425,4.5 L8.26977273,4.5 Z M8.67886364,14.1856364 L3.95181818,12.0260455 C5.29568182,12.1618636 6.92181818,12.2727273 8.67886364,12.2727273 C10.4359091,12.2727273 12.0620455,12.1618636 13.4059091,12.0256364 L8.67886364,14.1856364 Z M15.6334091,10.9202727 C14.1852273,11.1411818 11.6161364,11.4545455 8.67886364,11.4545455 C5.74159091,11.4545455 3.17209091,11.1411818 1.72431818,10.9202727 L1.72431818,9 L15.6334091,9 L15.6334091,10.9202727 Z" id="Shape" fill="#000000" fill-rule="nonzero"></path>
            </g>
        </g>
    </g>
</svg>