<?xml version="1.0" encoding="UTF-8"?>
<svg width="30px" height="30px" viewBox="0 0 30 30" version="1.1" xmlns="http://www.w3.org/2000/svg" xmlns:xlink="http://www.w3.org/1999/xlink">
    <title>L-Bar / Icon / Dark / P2P</title>
    <g id="L-Bar-/-Icon-/-Dark-/-P2P" stroke="none" stroke-width="1" fill="none" fill-rule="evenodd">
        <g id="iconfinder_Resume_Cup_2316248" transform="translate(6.000000, 5.000000)" fill="#353643" fill-rule="nonzero">
            <path d="M13.7855556,1.60666667 L13.7855556,1 C13.7855556,0.44771525 13.3378403,8.7960173e-16 12.7855556,0 L4.96111111,0 C4.40882636,5.91980459e-16 3.96111111,0.44771525 3.96111111,1 L3.96111111,1.6 L3.96111111,1.6 L1.26333333,1.6 C0.711048584,1.6 0.263333333,2.04771525 0.263333333,2.6 L0.263333333,6.14 L0.263333333,6.14 C0.264039034,7.43079652 0.8231138,8.65817552 1.79651387,9.50590688 C2.76991395,10.3536382 4.06245244,10.738824 5.34111111,10.5622222 C5.97666667,11.5488889 6.79444444,12.2711111 7.71444444,12.6044444 L7.71444444,16.16 L7.28333333,16.16 C6.73104858,16.16 6.28333333,16.6077153 6.28333333,17.16 L6.28333333,17.4933333 L6.28333333,17.4933333 L5.74038833,17.4933333 C5.36212683,17.4933333 5.016239,17.7067651 4.84659593,18.0448524 L4.49444444,18.7466667 C4.28012536,19.1737902 4.45263746,19.6937822 4.87976101,19.9081013 C5.00019415,19.9685314 5.13307606,20 5.26782004,20 L12.4697479,20 C12.9475084,20 13.3348098,19.6126986 13.3348098,19.1349381 C13.3348098,19.0013698 13.3038801,18.8696157 13.2444444,18.75 L12.899115,18.0550167 C12.7301682,17.7150075 12.383246,17.5 12.0035761,17.5 L11.4633333,17.5 L11.4633333,17.5 L11.4633333,17.1666667 C11.4633333,16.6143819 11.0156181,16.1666667 10.4633333,16.1666667 L10.0322222,16.1666667 L10.0322222,16.1666667 L10.0322222,12.6111111 C10.9522222,12.2777778 11.77,11.5555556 12.4055556,10.5688889 C13.6842142,10.7454906 14.9767527,10.3603049 15.9501528,9.51257354 C16.9235529,8.66484219 17.4826276,7.43746319 17.4833333,6.14666667 L17.4833333,2.60666667 C17.4833333,2.05438192 17.0356181,1.60666667 16.4833333,1.60666667 L13.7855556,1.60666667 L13.7855556,1.60666667 Z M13.7855556,3.48222222 L14.61,3.48222222 C15.1622847,3.48222222 15.61,3.92993747 15.61,4.48222222 L15.61,6.12444444 L15.61,6.12444444 C15.5960974,7.45182171 14.5955962,8.56094886 13.2766667,8.71111111 C13.618651,7.65614532 13.7904322,6.55344504 13.7855556,5.44444444 L13.7855556,3.48222222 Z M2.13666667,6.12444444 L2.13666667,4.48222222 C2.13666667,3.92993747 2.58438192,3.48222222 3.13666667,3.48222222 L3.96111111,3.48222222 L3.96111111,3.48222222 L3.96111111,5.44444444 C3.95623446,6.55344504 4.12801566,7.65614532 4.47,8.71111111 C3.15107051,8.56094886 2.15056922,7.45182171 2.13666667,6.12444444 Z" id="Shape"></path>
        </g>
    </g>
</svg>