<?xml version="1.0" encoding="UTF-8"?>
<svg width="30px" height="30px" viewBox="0 0 30 30" version="1.1" xmlns="http://www.w3.org/2000/svg" xmlns:xlink="http://www.w3.org/1999/xlink">
    <title>L-Bar / Icon / Dark / Messages</title>
    <g id="L-Bar-/-Icon-/-Dark-/-Messages" stroke="none" stroke-width="1" fill="none" fill-rule="evenodd">
        <g id="if_sms_2639922" transform="translate(11.000000, 12.000000)" fill="#353643" fill-rule="nonzero">
            <path d="M2.81461538,10.6136538 C2.85615385,11.5003846 2.73211538,12.7194231 1.49346154,13.2888462 L1.59615385,13.8403846 C3.2675,13.8403846 5.11480769,12.7315385 5.82615385,10.8646154 L2.81461538,10.6136538 Z" id="Path"></path>
            <path d="M12.6923077,0 L2.30769231,0 C1.03326923,0 0,1.03326923 0,2.30769231 L0,9.23076923 C0,10.5051923 1.03326923,11.5384615 2.30769231,11.5384615 L12.6923077,11.5384615 C13.9667308,11.5384615 15,10.5051923 15,9.23076923 L15,2.30769231 C15,1.03326923 13.9667308,0 12.6923077,0 Z M7.5,6.92307692 C6.8625,6.92307692 6.34615385,6.40673077 6.34615385,5.76923077 C6.34615385,5.13173077 6.8625,4.61538462 7.5,4.61538462 C8.1375,4.61538462 8.65384615,5.13173077 8.65384615,5.76923077 C8.65384615,6.40673077 8.1375,6.92307692 7.5,6.92307692 Z M10.9615385,6.92307692 C10.3240385,6.92307692 9.80769231,6.40673077 9.80769231,5.76923077 C9.80769231,5.13173077 10.3240385,4.61538462 10.9615385,4.61538462 C11.5990385,4.61538462 12.1153846,5.13173077 12.1153846,5.76923077 C12.1153846,6.40673077 11.5990385,6.92307692 10.9615385,6.92307692 Z M4.03846154,6.92307692 C3.40096154,6.92307692 2.88461538,6.40673077 2.88461538,5.76923077 C2.88461538,5.13173077 3.40096154,4.61538462 4.03846154,4.61538462 C4.67596154,4.61538462 5.19230769,5.13173077 5.19230769,5.76923077 C5.19230769,6.40673077 4.67596154,6.92307692 4.03846154,6.92307692 Z" id="Shape"></path>
        </g>
        <g id="if_mail-24_103176" transform="translate(3.000000, 4.000000)" fill="#353643" fill-rule="nonzero">
            <path d="M8.4686879,6.86613125 C7.24963751,6.86613125 0.969,1.80454413 0.969,1.80454413 L0.969,1.2483875 C0.969,0.5592776 1.5282776,5.59552404e-14 2.21863589,5.59552404e-14 L14.7187399,5.59552404e-14 C15.4097224,5.59552404e-14 15.969,0.5592776 15.969,1.2483875 L15.9590129,1.87258125 C15.9590129,1.87258125 9.74641251,6.86613125 8.4686879,6.86613125 Z M8.4686879,8.58266406 C9.80508672,8.58266406 15.9590129,3.7451625 15.9590129,3.7451625 L15.969,11.2354875 C15.969,11.9245974 15.4097224,12.483875 14.7187399,12.483875 L2.21863589,12.483875 C1.52890179,12.483875 0.969,11.9245974 0.969,11.2354875 L0.9789871,3.7451625 C0.978362906,3.7451625 7.24963751,8.58266406 8.4686879,8.58266406 Z" id="Shape"></path>
        </g>
    </g>
</svg>