<?xml version="1.0" encoding="UTF-8"?>
<svg width="30px" height="30px" viewBox="0 0 30 30" version="1.1" xmlns="http://www.w3.org/2000/svg" xmlns:xlink="http://www.w3.org/1999/xlink">
    <title>L-Bar / Icon / Dark / Dashboard</title>
    <g id="L-Bar-/-Icon-/-Dark-/-Dashboard" stroke="none" stroke-width="1" fill="none" fill-rule="evenodd">
        <path d="M21.921837,21.9999976 C22.2699502,21.9999976 22.6040254,21.8256206 22.7793484,21.5249926 C23.5546456,20.1956196 23.9999571,18.6499995 23.9999571,17.0000095 C23.9999571,12.0294098 19.9705783,8.00003099 14.9999785,8.00003099 C10.0293788,8.00003099 6,12.0294098 6,17.0000095 C6,18.6499995 6.44531144,20.1956196 7.22060866,21.5249926 C7.39593173,21.8256206 7.73000686,21.9999976 8.07812005,21.9999976 L21.921837,21.9999976 Z M15.0002861,12.0000262 C14.4481,12.0000262 14.0002861,11.5522076 14.0002861,11.0000262 C14.0002861,10.4478401 14.4477948,10.0000262 14.9999785,10.0000262 C15.4596637,10.0000262 15.830604,10.3165843 15.947486,10.7390992 L15.8711539,10.8752931 C15.8590361,10.898326 15.8481007,10.9221127 15.8396677,10.9475337 L15.5515519,11.8122167 C15.391213,11.9212863 15.2087183,12.0000262 15.0002861,12.0000262 Z M16.7224781,20.0000024 L13.277479,20.0000024 C13.1056044,19.7046845 12.9999833,19.3662454 12.9999833,19.0000048 C12.9999833,17.9393689 13.8281063,17.0803316 14.8718661,17.0128269 L16.7887316,11.2625354 C16.9190413,10.8700193 17.3427769,10.6547183 17.7374598,10.7884765 C18.1302811,10.9193966 18.3421642,11.3443834 18.2115187,11.7372047 L16.2949889,17.487191 C16.7227833,17.8540724 16.9999833,18.3918824 16.9999833,19.0000048 C16.9999833,19.3662454 16.8943527,19.7046845 16.7224781,20.0000024 Z M10.4999917,14.0000215 C9.94780553,14.0000215 9.49999166,13.5522028 9.49999166,13.0000215 C9.49999166,12.4478353 9.94780553,12.0000215 10.4999917,12.0000215 C11.052173,12.0000215 11.4999917,12.4478353 11.4999917,13.0000215 C11.4999917,13.5522028 11.052173,14.0000215 10.4999917,14.0000215 Z M19.4999678,14.0003266 C19.1443473,14.0000167 18.8471679,13.8040943 18.6696475,13.5247065 L19.1546622,12.0700286 C19.2630909,12.029715 19.3774705,12.0003266 19.4999678,12.0003266 C20.0521516,12.0003266 20.4999654,12.4481405 20.4999654,13.0003266 C20.4999654,13.552508 20.0521516,14.0003266 19.4999678,14.0003266 Z M8.99999523,19.0000095 C8.44780911,19.0000095 7.99999523,18.5521909 7.99999523,18.0000095 C7.99999523,17.4478234 8.44780911,17.0000095 8.99999523,17.0000095 C9.55217659,17.0000095 9.99999523,17.4478234 9.99999523,18.0000095 C9.99999523,18.5521909 9.55217659,19.0000095 8.99999523,19.0000095 Z M20.9999666,19.0000095 C20.4477805,19.0000095 19.9999666,18.5521909 19.9999666,18.0000095 C19.9999666,17.4478234 20.4477805,17.0000095 20.9999666,17.0000095 C21.552148,17.0000095 21.9999666,17.4478234 21.9999666,18.0000095 C21.9999666,18.5521909 21.552148,19.0000095 20.9999666,19.0000095 Z" id="ttachometer-alt" fill="#353643" fill-rule="nonzero"></path>
    </g>
</svg>