<?xml version="1.0" encoding="UTF-8"?>
<svg width="30px" height="30px" viewBox="0 0 30 30" version="1.1" xmlns="http://www.w3.org/2000/svg" xmlns:xlink="http://www.w3.org/1999/xlink">
    <title>L-Bar / Icon / Dark / Events</title>
    <g id="L-Bar-/-Icon-/-Dark-/-Events" stroke="none" stroke-width="1" fill="none" fill-rule="evenodd">
        <path d="M21.9999666,12.0000215 L21.9999666,10.5000334 C21.9999666,9.67190201 21.3280932,9.00003338 20.4999702,9.00003338 L18.9999738,9.00003338 L18.9999738,7.50003338 C18.9999738,7.22503895 18.7749682,7.00003338 18.499975,7.00003338 L17.4999774,7.00003338 C17.2249841,7.00003338 16.9999785,7.22503895 16.9999785,7.50003338 L16.9999785,9.00003338 L12.9999881,9.00003338 L12.9999881,7.50003338 C12.9999881,7.22503895 12.7749825,7.00003338 12.4999893,7.00003338 L11.5,7.00003338 C11.2249984,7.00003338 11,7.22503895 11,7.50003338 L11,9.00003338 L9.5,9.00003338 C8.6718734,9.00003338 8,9.67190201 8,10.5000334 L8,12.0000215 L21.9999666,12.0000215 Z M20.4999702,22.9999952 C21.3280932,22.9999952 21.9999666,22.3281218 21.9999666,21.4999988 L21.9999666,13.0000191 L8,13.0000191 L8,21.4999988 C8,22.3281218 8.6718734,22.9999952 9.5,22.9999952 L20.4999702,22.9999952 Z M19.6249723,17.0000143 L18.3749753,17.0000143 C18.168738,17.0000143 17.9999762,16.8312477 17.9999762,16.6250104 L17.9999762,15.3750134 C17.9999762,15.1687761 18.168738,15.0000143 18.3749753,15.0000143 L19.6249723,15.0000143 C19.8312096,15.0000143 19.9999762,15.1687761 19.9999762,15.3750134 L19.9999762,16.6250104 C19.9999762,16.8312477 19.8312096,17.0000143 19.6249723,17.0000143 Z M15.6249818,17.0000143 L14.3749848,17.0000143 C14.1687475,17.0000143 13.9999857,16.8312477 13.9999857,16.6250104 L13.9999857,15.3750134 C13.9999857,15.1687761 14.1687475,15.0000143 14.3749848,15.0000143 L15.6249818,15.0000143 C15.8312191,15.0000143 15.9999857,15.1687761 15.9999857,15.3750134 L15.9999857,16.6250104 C15.9999857,16.8312477 15.8312191,17.0000143 15.6249818,17.0000143 Z M11.6249914,17.0000143 L10.3749943,17.0000143 C10.168757,17.0000143 9.99999523,16.8312477 9.99999523,16.6250104 L9.99999523,15.3750134 C9.99999523,15.1687761 10.168757,15.0000143 10.3749943,15.0000143 L11.6249914,15.0000143 C11.8312287,15.0000143 11.9999952,15.1687761 11.9999952,15.3750134 L11.9999952,16.6250104 C11.9999952,16.8312477 11.8312287,17.0000143 11.6249914,17.0000143 Z M19.6249723,21.0000048 L18.3749753,21.0000048 C18.168738,21.0000048 17.9999762,20.8312382 17.9999762,20.6250009 L17.9999762,19.3750039 C17.9999762,19.1687666 18.168738,19.0000048 18.3749753,19.0000048 L19.6249723,19.0000048 C19.8312096,19.0000048 19.9999762,19.1687666 19.9999762,19.3750039 L19.9999762,20.6250009 C19.9999762,20.8312382 19.8312096,21.0000048 19.6249723,21.0000048 Z M15.6249818,21.0000048 L14.3749848,21.0000048 C14.1687475,21.0000048 13.9999857,20.8312382 13.9999857,20.6250009 L13.9999857,19.3750039 C13.9999857,19.1687666 14.1687475,19.0000048 14.3749848,19.0000048 L15.6249818,19.0000048 C15.8312191,19.0000048 15.9999857,19.1687666 15.9999857,19.3750039 L15.9999857,20.6250009 C15.9999857,20.8312382 15.8312191,21.0000048 15.6249818,21.0000048 Z M11.6249914,21.0000048 L10.3749943,21.0000048 C10.168757,21.0000048 9.99999523,20.8312382 9.99999523,20.6250009 L9.99999523,19.3750039 C9.99999523,19.1687666 10.168757,19.0000048 10.3749943,19.0000048 L11.6249914,19.0000048 C11.8312287,19.0000048 11.9999952,19.1687666 11.9999952,19.3750039 L11.9999952,20.6250009 C11.9999952,20.8312382 11.8312287,21.0000048 11.6249914,21.0000048 Z" id="ccalendar-alt" fill="#353643" fill-rule="nonzero"></path>
    </g>
</svg>