<?xml version="1.0" encoding="UTF-8"?>
<svg width="30px" height="40px" viewBox="0 0 30 30" version="1.1" xmlns="http://www.w3.org/2000/svg" xmlns:xlink="http://www.w3.org/1999/xlink">
    <title>L-Bar / Icon / Dark / Shopping-Cart</title>
    <g id="Symbols" stroke="none" stroke-width="1" fill="none" fill-rule="evenodd">
        <g id="Left-Menu-/-List-Item-/-eCommerce" transform="translate(-9.000000, -13.500000)" fill="#353643" fill-rule="nonzero">
            <g id="sshopping-cart" transform="translate(9.000000, 10.000000)">
                <path d="M20.9999642,22.9999952 C21.9664536,22.9999952 22.7499601,22.2164888 22.7499601,21.2499994 C22.7499601,20.55713 22.3472205,19.9583765 21.7631155,19.6748384 L21.9355394,18.9162342 C22.0421676,18.4469055 21.6854484,18.0000072 21.2041874,18.0000072 L12.8161459,18.0000072 L12.6116175,17.0000095 L21.7723623,17.0000095 C22.1225507,17.0000095 22.4261083,16.7577005 22.5037143,16.4162402 L23.9809752,9.91625567 C24.0876339,9.44692696 23.7309148,9.00003338 23.2496537,9.00003338 L10.9752384,9.00003338 L10.6888011,7.59973288 C10.6174206,7.25070417 10.3102925,7.00003338 9.9540311,7.00003338 L6.74999821,7.00003338 C6.33578411,7.00003338 6,7.33581749 6,7.75003159 L6,8.2500304 C6,8.6642445 6.33578411,9.00003338 6.74999821,9.00003338 L8.9338309,9.00003338 L11.1290771,19.7323333 C10.6039014,20.0343651 10.2499899,20.6006784 10.2499899,21.2499994 C10.2499899,22.2164888 11.0334963,22.9999952 11.9999857,22.9999952 C12.9664751,22.9999952 13.7499815,22.2164888 13.7499815,21.2499994 C13.7499815,20.7601934 13.548505,20.3176591 13.2242259,20.0000024 L19.7756935,20.0000024 C19.451445,20.3176591 19.2499684,20.7601934 19.2499684,21.2499994 C19.2499684,22.2164888 20.0334748,22.9999952 20.9999642,22.9999952 Z"></path>
            </g>
        </g>
    </g>
</svg>