<?xml version="1.0" encoding="UTF-8"?>
<svg width="30px" height="40px" viewBox="0 0 30 30" version="1.1" xmlns="http://www.w3.org/2000/svg" xmlns:xlink="http://www.w3.org/1999/xlink">
    <title>L-Bar / Icon / Dark / Content-Light</title>
    <g id="Symbols" stroke="none" stroke-width="1" fill="none" fill-rule="evenodd">
        <g id="Left-Menu-/-List-Item-/-Content" transform="translate(-9.000000, -13.500000)" fill="#353643" fill-rule="nonzero">
            <g id="ffile-alt" transform="translate(9.000000, 10.000000)">
                <path d="M20.2499732,22.9999952 C20.6655911,22.9999952 20.9999714,22.6656149 20.9999714,22.249997 L20.9999714,12.0000215 L16.7499815,12.0000215 C16.3374764,12.0000215 15.9999833,11.6625284 15.9999833,11.2500232 L15.9999833,7.00003338 L9.74999821,7.00003338 C9.33438031,7.00003338 9,7.33441368 9,7.75003159 L9,22.249997 C9,22.6656149 9.33438031,22.9999952 9.74999821,22.9999952 L20.2499732,22.9999952 Z M20.9999809,11.0000334 L20.9999809,10.8094115 C20.9999809,10.6125126 20.9218466,10.4219002 20.7812219,10.2812756 L17.721842,7.21878286 C17.5812173,7.07815819 17.390605,7.00003338 17.1905933,7.00003338 L16.9999809,7.00003338 L16.9999809,11.0000334 L20.9999809,11.0000334 Z M17.6249794,15.0000155 L12.374992,15.0000155 C12.1687547,15.0000155 11.9999928,14.8312525 11.9999928,14.6250152 L11.9999928,14.3750158 C11.9999928,14.1687785 12.1687547,14.0000155 12.374992,14.0000155 L17.6249794,14.0000155 C17.8312167,14.0000155 17.9999785,14.1687785 17.9999785,14.3750158 L17.9999785,14.6250152 C17.9999785,14.8312525 17.8312167,15.0000155 17.6249794,15.0000155 Z M17.6249794,17.0000107 L12.374992,17.0000107 C12.1687547,17.0000107 11.9999928,16.8312477 11.9999928,16.6250104 L11.9999928,16.375011 C11.9999928,16.1687737 12.1687547,16.0000107 12.374992,16.0000107 L17.6249794,16.0000107 C17.8312167,16.0000107 17.9999785,16.1687737 17.9999785,16.375011 L17.9999785,16.6250104 C17.9999785,16.8312477 17.8312167,17.0000107 17.6249794,17.0000107 Z M17.6249794,19.000006 L12.374992,19.000006 C12.1687547,19.000006 11.9999928,18.831243 11.9999928,18.6250057 L11.9999928,18.3750063 C11.9999928,18.168769 12.1687547,18.000006 12.374992,18.000006 L17.6249794,18.000006 C17.8312167,18.000006 17.9999785,18.168769 17.9999785,18.3750063 L17.9999785,18.6250057 C17.9999785,18.831243 17.8312167,19.000006 17.6249794,19.000006 Z"></path>
            </g>
        </g>
    </g>
</svg>