<?xml version="1.0" encoding="UTF-8"?>
<svg width="30px" height="30px" viewBox="0 0 30 30" version="1.1" xmlns="http://www.w3.org/2000/svg" xmlns:xlink="http://www.w3.org/1999/xlink">
    <title>L-Bar / Icon / Dark / Connections</title>
    <g id="L-Bar-/-Icon-/-Dark-/-Connections" stroke="none" stroke-width="1" fill="none" fill-rule="evenodd">
        <path d="M18.9999809,11.0000334 L18.9999809,8.00003338 C18.9999809,7.44812191 18.5518876,7.00003338 17.9999809,7.00003338 C17.4480695,7.00003338 16.9999809,7.44812191 16.9999809,8.00003338 L16.9999809,11.0000334 L18.9999809,11.0000334 Z M12.9999952,11.0000334 L12.9999952,8.00003338 C12.9999952,7.44812191 12.5519019,7.00003338 11.9999952,7.00003338 C11.4480838,7.00003338 10.9999952,7.44812191 10.9999952,8.00003338 L10.9999952,11.0000334 L12.9999952,11.0000334 Z M15.9999833,22.9999952 L15.9999833,19.8999965 C18.2790916,19.4339332 19.9996076,17.4159326 19.9999738,15.0000215 L19.9999738,14.0000215 L20.4999726,14.0000215 C20.7759424,14.0000215 20.9999714,13.7759877 20.9999714,13.5000215 L20.9999714,12.5000215 C20.9999714,12.2240505 20.7759424,12.0000215 20.4999726,12.0000215 L9.5,12.0000215 C9.22402901,12.0000215 9,12.2240505 9,12.5000215 L9,13.5000215 C9,13.7759877 9.22402901,14.0000215 9.5,14.0000215 L10,14.0000215 L10,15.0000215 C10.0003638,17.4159326 11.7208797,19.4339332 13.9999881,19.8999965 L13.9999881,22.9999952 L15.9999833,22.9999952 Z" id="pplug" fill="#353643" fill-rule="nonzero"></path>
    </g>
</svg>