<?xml version="1.0" encoding="UTF-8"?>
<svg width="30px" height="30px" viewBox="0 0 30 30" version="1.1" xmlns="http://www.w3.org/2000/svg" xmlns:xlink="http://www.w3.org/1999/xlink">
    <title>L-Bar / Icon / Dark / Tickets</title>
    <g id="L-Bar-/-Icon-/-Dark-/-Tickets" stroke="none" stroke-width="1" fill="none" fill-rule="evenodd">
        <path d="M16.7704647,9.94 L20.5163158,13.6858511 L13.7358511,20.4663158 L9.99,16.7204647 L16.7704647,9.94 Z M14.2775033,21.6279623 L21.6164735,14.2757209 C21.7668947,14.1250278 21.8421053,13.9465753 21.8421053,13.7403636 C21.8421053,13.5341518 21.7668947,13.3556994 21.6164735,13.2050062 L17.3175945,8.89835348 C17.1750903,8.75559151 16.9969599,8.68421053 16.7832035,8.68421053 C16.5694471,8.68421053 16.3913167,8.75559151 16.2488125,8.89835348 L8.9098423,16.2505948 C8.75942112,16.401288 8.68421053,16.5797405 8.68421053,16.7859522 C8.68421053,16.992164 8.75942112,17.1706164 8.9098423,17.3213096 L13.2087213,21.6279623 C13.3512255,21.7707243 13.5293559,21.8421053 13.7431123,21.8421053 C13.9568687,21.8421053 14.134999,21.7707243 14.2775033,21.6279623 Z M24.5608309,13.7833828 L13.7952522,24.5608309 C13.5024728,24.8536103 13.1444115,25 12.7210682,25 C12.297725,25 11.9396637,24.8536103 11.6468843,24.5608309 L10.1513353,23.0652819 C10.5944609,22.6221563 10.8160237,22.0840752 10.8160237,21.4510386 C10.8160237,20.818002 10.5944609,20.2799209 10.1513353,19.8367953 C9.70820969,19.3936696 9.17012859,19.1721068 8.53709199,19.1721068 C7.90405539,19.1721068 7.36597428,19.3936696 6.92284866,19.8367953 L5.43916914,18.3412463 C5.14638971,18.0484669 5,17.6904055 5,17.2670623 C5,16.8437191 5.14638971,16.4856578 5.43916914,16.1928783 L16.2047478,5.43916914 C16.4975272,5.14638971 16.8555885,5 17.2789318,5 C17.702275,5 18.0603363,5.14638971 18.3531157,5.43916914 L19.8367953,6.92284866 C19.3936696,7.36597428 19.1721068,7.90405539 19.1721068,8.53709199 C19.1721068,9.17012859 19.3936696,9.70820969 19.8367953,10.1513353 C20.2799209,10.5944609 20.818002,10.8160237 21.4510386,10.8160237 C22.0840752,10.8160237 22.6221563,10.5944609 23.0652819,10.1513353 L24.5608309,11.6350148 C24.8536103,11.9277943 25,12.2858556 25,12.7091988 C25,13.132542 24.8536103,13.4906034 24.5608309,13.7833828 Z" id="Shape" fill="#353643" fill-rule="nonzero"></path>
    </g>
</svg>