<?xml version="1.0" encoding="UTF-8"?>
<svg width="30px" height="30px" viewBox="0 0 30 30" version="1.1" xmlns="http://www.w3.org/2000/svg" xmlns:xlink="http://www.w3.org/1999/xlink">
    <title>L-Bar / Icon / Dark / People</title>
    <g id="L-Bar-/-Icon-/-Dark-/-People" stroke="none" stroke-width="1" fill="none" fill-rule="evenodd">
        <path d="M14.9999845,15.0000143 C16.9343588,15.0000143 18.4999678,13.4344052 18.4999678,11.500031 C18.4999678,9.56564005 16.9343588,8.00003099 14.9999845,8.00003099 C13.0655936,8.00003099 11.4999845,9.56564005 11.4999845,11.500031 C11.4999845,13.4344052 13.0655936,15.0000143 14.9999845,15.0000143 Z M7.99999762,14.0000262 C9.10310911,14.0000262 9.99999762,13.1031377 9.99999762,12.0000262 C9.99999762,10.8969052 9.10310911,10.0000262 7.99999762,10.0000262 C6.89687658,10.0000262 5.99999762,10.8969052 5.99999762,12.0000262 C5.99999762,13.1031377 6.89687658,14.0000262 7.99999762,14.0000262 Z M21.9999642,14.0000262 C23.1030757,14.0000262 23.9999642,13.1031377 23.9999642,12.0000262 C23.9999642,10.8969052 23.1030757,10.0000262 21.9999642,10.0000262 C20.8968432,10.0000262 19.9999642,10.8969052 19.9999642,12.0000262 C19.9999642,13.1031377 20.8968432,14.0000262 21.9999642,14.0000262 Z M23.9999547,19.0000143 C24.5530845,19.0000143 24.9999523,18.5531369 24.9999523,18.0000143 L24.9999523,17.0000143 C24.9999523,15.8968933 24.1030734,15.0000143 22.9999571,15.0000143 L20.9999619,15.0000143 C20.4499754,15.0000143 19.9530893,15.2218766 19.5906024,15.5812507 C20.8499683,16.2718924 21.743704,17.5187461 21.9374596,19.0000143 L23.9999547,19.0000143 Z M8.05937991,19.0000143 C8.25624834,17.5187461 9.149984,16.2718924 10.4093499,15.5812507 C10.046863,15.2218766 9.54997694,15.0000143 9,15.0000143 L7,15.0000143 C5.89687897,15.0000143 5,15.8968933 5,17.0000143 L5,18.0000143 C5,18.5531369 5.44686783,19.0000143 6,19.0000143 L8.05937991,19.0000143 Z M19.4999654,21.9999976 C20.3280885,21.9999976 20.9999619,21.3281242 20.9999619,20.5000012 L20.9999619,19.6000094 C20.9999619,17.6124959 19.3874779,16.0000119 17.3999643,16.0000119 L17.1405961,16.0000119 C16.4906037,16.3125112 15.7687121,16.5000119 14.9999762,16.5000119 C14.2312402,16.5000119 13.5124919,16.3125112 12.8593563,16.0000119 L12.599988,16.0000119 C10.6124744,16.0000119 8.99999046,17.6124959 8.99999046,19.6000094 L8.99999046,20.5000012 C8.99999046,21.3281242 9.67186386,21.9999976 10.4999905,21.9999976 L19.4999654,21.9999976 Z" id="uusers" fill="#353643" fill-rule="nonzero"></path>
    </g>
</svg>